<svg id="e0QB8vPSD6z1" xmlns="http://www.w3.org/2000/svg" xmlns:xlink="http://www.w3.org/1999/xlink" viewBox="0 0 300 300" shape-rendering="geometricPrecision" text-rendering="geometricPrecision"><g transform="matrix(1 0 0 0.598653 0 60.20205)"><path d="M0,0C82.84271,0,150,67.15729,150,150L0,0Z" transform="matrix(-1 0 0 1 150 150)" fill="#8bc695" stroke-width="0"/><path d="M0,0C82.84271,0,150,67.15729,150,150L0,0Z" transform="translate(150 150)" fill="#65ca78" stroke-width="0"/><path d="M0,0C82.84271,0,150,67.15729,150,150L0,0Z" transform="matrix(-1 0 0 1 300 0)" fill="#8bc695" stroke-width="0"/><path d="M0,0C82.84271,0,150,67.15729,150,150L0,0Z" fill="#65ca78" stroke-width="0"/></g></svg>
