<svg xmlns="http://www.w3.org/2000/svg" width="231.681" height="230.721" viewBox="0 0 724 721"><path fill="#91bf10" d="M15 447l10-7.23 18-10.07 62-35 90-50.85 35-19.21 8-.64h163c-5.05 7.06-9.91 10.41-16 16.09l-22 21-34 32.87-30 28.08-20 19.05c-7.84 7.3-7.92 10.89-19 10.91h-14l-16-1h-31l-17-1-80-1-17-1H54l-17-1H15z"/><path fill="#d5ed4f" d="M438 325c2.58-5.41 13.11-14.18 18-18.42l29-26.67 49-45.08c3.82-3.45 17.36-16.89 21-18.03 3.95-1.66 14.87.19 20 0l22 1.2 22 1 50 2 11 .91c8.54.59 11.36-.64 21 1.09l-30 28.09-55 50.33-26 22.65-8 .93H438zM555.01 10c2.39 6.06.16 14.62 0 21l-3.92 57-3.18 52-1.87 22-1.95 29c-.27 3.96.33 9.24-1.12 12.91-1.28 3.23-6.35 7.53-8.97 10.08l-22 20.18-54 50c-6.34 5.73-20.62 20.41-27 23.83V167c.02-10.45 3.73-12.18 10.25-20l21.67-26 92.09-111z"/><path fill="#d5ed4f" d="M555.01 10c2.39 6.06.16 14.62 0 21l-3.92 57-3.18 52-1.87 22-1.95 29c-.27 3.96.33 9.24-1.12 12.91-1.28 3.23-6.35 7.53-8.97 10.08l-22 20.18-54 50c-6.34 5.73-20.62 20.41-27 23.83V167c.02-10.45 3.73-12.18 10.25-20l21.67-26 92.09-111zM307 51c9.48 6.79 20.76 20.34 29.04 29l25.95 26 9.05 10L389 134l15.09 16c7.08 7.6 9.89 7.3 9.91 18v140l-10.99-10-21.1-23-37-40-22.33-24-16.98-20-.6-7v-13l1-15v-53l1-17V51z"/><path fill="#91bf10" d="M135 196l32 1 22 1 16 1 20 1.04h12l12 .96 20 1 24.83 1.6 18.21 18.4 46.05 50 22.19 24 8.72 11H242l-8-1.02-9.17-8.98-14.55-16-48.45-54L135 196z"/><path fill="#3b760a" d="M413 333c1.88 4.73 1 25.55 1 32v171l-1 15v74c0 2.09.12 5.06-.6 7-1.49 4.04-12.77 14.37-16.4 18l-41 41c-5.4 5.4-14.55 15.95-21 19l1-47v-57-187c0-2.09-.12-5.06.6-7 1.56-4.25 15.41-17.01 19.4-21l58-58z"/></svg>